<svg width="40" height="42" viewBox="0 0 40 42" fill="none" xmlns="http://www.w3.org/2000/svg">
<path d="M40 20.537C40 30.909 32.5118 39.4835 22.7848 40.8754C21.8749 41.0055 20.9444 41.0729 20 41.0729C18.9094 41.0729 17.8395 40.983 16.796 40.8103C7.27399 39.2364 0 30.7576 0 20.5358C0 9.19418 8.95429 0 20 0C31.0457 0 40 9.19418 40 20.5358V20.537Z" fill="#021526"/>
<path d="M27.502 11.7793C28.6487 11.7782 29.6961 11.8146 30.501 12.3125L30.6592 12.418C31.1794 12.7967 31.5309 13.3602 31.7725 14.0469C32.0149 14.7361 32.1352 15.5176 32.2129 16.293V16.2939C32.5009 19.1592 32.5047 22.0563 32.2246 24.9229C32.1063 26.1269 31.9139 27.2409 31.2588 28.0156C30.7013 28.6757 29.8878 29.0063 28.9316 29.1631L28.5137 29.2207C27.9416 29.2848 27.3478 29.2939 26.7617 29.2939C22.1598 29.2892 17.5579 29.2868 12.9561 29.2832C11.568 29.2821 10.2646 29.226 9.31836 28.5518L9.13379 28.4082C8.60249 27.9582 8.26272 27.3283 8.04395 26.5811C7.82437 25.8309 7.73526 24.9945 7.68457 24.166V24.165C7.56164 22.1741 7.53662 20.1759 7.61035 18.1816L7.64844 17.3271C7.71184 16.0642 7.82308 14.8621 8.30762 13.8184C8.6505 13.079 9.21029 12.4411 9.89355 12.1143V12.1152C10.708 11.7262 11.5476 11.7939 12.624 11.7939H12.625L19.918 11.7861C21.1819 11.785 22.446 11.7844 23.71 11.7832C24.9739 11.782 26.238 11.7805 27.502 11.7793ZM16.7559 25.4814L17.5107 25.0342L24.3711 20.9678L25.0967 20.5371L24.3711 20.1074L17.5107 16.041L16.7559 15.5928V25.4814Z" fill="white" stroke="black"/>
</svg>
