<svg width="40" height="41" viewBox="0 0 40 41" fill="none" xmlns="http://www.w3.org/2000/svg">
<path d="M40 20.5372C40 30.6383 32.5118 38.9888 22.7848 40.3443C21.8749 40.471 20.9444 40.5366 20 40.5366C18.9094 40.5366 17.8395 40.4491 16.796 40.281C7.27399 38.7481 0 30.4908 0 20.536C0 9.49064 8.95429 0.536621 20 0.536621C31.0457 0.536621 40 9.49064 40 20.536V20.5372Z" fill="#021526"/>
<path d="M26.2612 8.53174H13.7345C10.2737 8.53174 7.45898 11.3464 7.45898 14.807V26.267C7.45898 29.7277 10.2737 32.5423 13.7345 32.5423H26.2612C29.722 32.5423 32.5367 29.7277 32.5367 26.267V14.807C32.5367 11.3464 29.722 8.53174 26.2612 8.53174ZM9.6725 14.807C9.6725 12.5671 11.4945 10.7452 13.7345 10.7452H26.2612C28.5012 10.7452 30.3232 12.5671 30.3232 14.807V26.267C30.3232 28.507 28.5012 30.3289 26.2612 30.3289H13.7345C11.4945 30.3289 9.6725 28.507 9.6725 26.267V14.807Z" fill="white"/>
<path d="M19.998 26.3755C23.217 26.3755 25.8359 23.7567 25.8359 20.5379C25.8359 17.319 23.217 14.7002 19.998 14.7002C16.7791 14.7002 14.1602 17.319 14.1602 20.5379C14.1602 23.7567 16.7791 26.3755 19.998 26.3755ZM19.998 16.9148C21.9962 16.9148 23.6212 18.5398 23.6212 20.5379C23.6212 22.536 21.9962 24.1609 19.998 24.1609C17.9999 24.1609 16.3748 22.536 16.3748 20.5379C16.3748 18.5398 17.9999 16.9148 19.998 16.9148Z" fill="white"/>
<path d="M26.3769 15.6429C27.2441 15.6429 27.9501 14.9369 27.9501 14.0697C27.9501 13.2025 27.2441 12.4966 26.3769 12.4966C25.5097 12.4966 24.8037 13.2025 24.8037 14.0697C24.8037 14.9369 25.5097 15.6429 26.3769 15.6429Z" fill="white"/>
</svg>
